<svg width="42" height="32" fill="none" xmlns="http://www.w3.org/2000/svg"><path d="M24.77 28.78l-5.942.798c-.562.075-1.08-.482-.954-1.124l3.315-12.873-7.925-11.364c-.34-.491-.152-1.232.49-1.318l5.941-.798c.322-.043.596.1.806.34l8.395 12.105-3.487 13.701c-.111.283-.319.49-.64.533z" fill="#EBE9F4" fill-opacity=".06"/><path d="M11.672 30.873l-5.94.798c-.563.075-1.08-.481-.956-1.124l3.315-12.873L.167 6.31c-.34-.49-.152-1.231.49-1.318l5.941-.797c.321-.043.595.099.806.339l8.395 12.105-3.487 13.701c-.111.283-.319.49-.64.533zm26.201-4.187l-5.94.798c-.562.075-1.08-.481-.955-1.124l3.315-12.873-7.925-11.364c-.34-.49-.152-1.232.49-1.318L32.8.008c.32-.043.595.099.805.339L42 12.452l-3.487 13.701c-.11.283-.318.49-.64.533z" fill="#EBE9F4" fill-opacity=".06"/></svg>