<svg width="1920" height="989" fill="none" xmlns="http://www.w3.org/2000/svg"><path fill="#167BF2" d="M0 65h1920v845H0z"/><path d="M599.398 963.712L247.058 854.5H1672.94l-420.57 134.263-221.74-78.882-431.232 53.831z" fill="#167BF2"/><path d="M1463 881l-210.18 76.72L1142 918.294 1463 881z" fill="#fff"/><path d="M1029.94 941l-215.911 26.956L1140.97 980.5 1029.94 941z" fill="#167BF2"/><g clip-path="url(#clip0_91_154)"><path fill="#fff" d="M1920 0H0v149h1920z"/><g clip-path="url(#clip1_91_154)"><path d="M461.699 49.763L29.029 212.74H1780L1263.55 19l-272.305 96.87-529.546-66.107z" fill="#167BF2"/></g><g clip-path="url(#clip2_91_154)"><path d="M993.825 75.44L729.056 42.383 1129.97 27 993.825 75.44z" fill="#167BF2"/></g><path d="M1523.99 151.14L1266.04 57l-136 48.377 393.95 45.763z" fill="#fff"/></g><defs><clipPath id="clip0_91_154"><path fill="#fff" transform="matrix(-1 0 0 1 1920 0)" d="M0 0h1920v149H0z"/></clipPath><clipPath id="clip1_91_154"><path fill="#fff" transform="matrix(-1 0 0 1 1780 -19)" d="M0 0h1751v215.94H0z"/></clipPath><clipPath id="clip2_91_154"><path fill="#fff" transform="matrix(-1 0 0 1 1130.01 27)" d="M0 0h401v48.44H0z"/></clipPath></defs></svg>