<svg width="1920" height="931" fill="none" xmlns="http://www.w3.org/2000/svg"><path fill="#167BF2" d="M0 149h1920v715.107H0z"/><path d="M599.398 909.563l-352.34-92.424H1672.94l-420.57 113.624-221.74-66.756-431.232 45.556z" fill="#167BF2"/><path d="M1463 839.565l-210.18 64.927L1142 871.127l321-31.562z" fill="#fff"/><path d="M1029.94 890.342l-215.911 22.812 326.941 10.616-111.03-33.428z" fill="#167BF2"/><g clip-path="url(#clip0_193_119)"><g clip-path="url(#clip1_193_119)"><path d="M479.699 49.763L47.029 212.74H1798L1281.55 19l-272.3 96.87-529.551-66.107z" fill="#167BF2"/></g><g clip-path="url(#clip2_193_119)"><path d="M1011.83 75.44L747.056 42.383 1147.97 27l-136.14 48.44z" fill="#167BF2"/></g><path d="M1541.99 151.14L1284.04 57l-136 48.378 393.95 45.762z" fill="#fff"/></g><defs><clipPath id="clip0_193_119"><path fill="#fff" transform="matrix(-1 0 0 1 1938 0)" d="M0 0h1920v149H0z"/></clipPath><clipPath id="clip1_193_119"><path fill="#fff" transform="matrix(-1 0 0 1 1798 -19)" d="M0 0h1751v215.94H0z"/></clipPath><clipPath id="clip2_193_119"><path fill="#fff" transform="matrix(-1 0 0 1 1148.01 27)" d="M0 0h401v48.44H0z"/></clipPath></defs></svg>