<svg width="93" height="43" fill="none" xmlns="http://www.w3.org/2000/svg"><g clip-path="url(#clip0_11_883)"><mask id="a" style="mask-type:luminance" maskUnits="userSpaceOnUse" x="0" y="0" width="93" height="43"><path d="M93 0H0v43h93V0z" fill="#fff"/></mask><g mask="url(#a)" fill="#fff"><path d="M57.126 0C44.968 0 36.634 20.68 26.521 20.68a6.824 6.824 0 01-4.796-2.038 6.977 6.977 0 01-1.498-7.496 6.87 6.87 0 011.47-2.24 6.768 6.768 0 012.212-1.494 6.708 6.708 0 012.609-.519c2.328 0 4.608 1.148 6.65 2.706.78.596 1.213.944 2.359.954a3.358 3.358 0 002.36-.939 3.432 3.432 0 001.048-2.335c.03-.82-.27-2.023-1.104-2.664C34.248 1.878 30.676.038 26.518.038a13.47 13.47 0 00-5.271.984 13.59 13.59 0 00-4.487 2.966 13.764 13.764 0 00-3.004 4.49 13.89 13.89 0 000 10.628 13.765 13.765 0 003.004 4.489 13.586 13.586 0 004.486 2.966 13.468 13.468 0 005.272.984c13.348 0 23.1-20.628 30.608-20.628 5.454 0 12.138 4.34 14.22 6.87-4.594 4.66-10.754 6.893-14.22 6.893-2.195 0-4.138-1.662-5.399-2.64h-4.803v4.928s4.885 4.577 10.188 4.577c8.474 0 17.568-7.051 23.822-13.759C73.934 6.362 65.044 0 57.126 0zM1.435 36.19a2.208 2.208 0 00-.947.944A4.87 4.87 0 000 39.436c-.019.676.089 1.35.317 1.986.126.365.343.692.63.949.288.256.635.434 1.01.515.311.056.627.08.944.073h2.188v-1.33H3.163a1.62 1.62 0 01-1.118-.345c-.34-.297-.515-.959-.515-1.992 0-.759.113-1.286.341-1.572a1.493 1.493 0 011.241-.496h1.977V35.88H2.965a3.437 3.437 0 00-1.53.31zm5.887-.31H5.93v7.079h1.39v-7.08zm4.898 0l-2.335 3.425V35.88H8.49v7.079h1.394v-3.506l2.209 3.506h1.826l-2.474-3.581 2.6-3.498H12.22zm3.752.137c-.278.106-.53.273-.736.49-.661.689-.999 1.65-.999 2.874-.047.934.2 1.858.706 2.64.322.448.806.75 1.346.841.407.07.819.102 1.23.097h1.75v-1.33h-1.705a1.994 1.994 0 01-1.32-.345 1.735 1.735 0 01-.446-1.186h3.47v-1.33h-3.456c.013-.224.04-.446.082-.666a1.3 1.3 0 01.177-.403.969.969 0 01.487-.39 3.25 3.25 0 01.962-.103h1.748V35.88h-2.253a3.285 3.285 0 00-1.043.138zm9.807 5.843a5.866 5.866 0 00-.079-.69 2.5 2.5 0 00-.163-.49 1.538 1.538 0 00-.341-.492 1.585 1.585 0 00-.46-.273c.25-.104.473-.265.65-.472a2.43 2.43 0 00.454-1.564 2.193 2.193 0 00-.195-.931 1.72 1.72 0 00-.552-.69c-.34-.255-.964-.382-1.83-.382h-3.044v7.08h1.39v-2.658h1.04c.341-.02.681.051.985.207.186.123.33.301.413.51.11.297.175.61.19.927.024.336.07.67.137 1v.03h1.558v-.055a5.2 5.2 0 01-.153-1.058zm-1.473-3.813a.958.958 0 01-.276.78c-.19.11-.409.16-.627.14H21.61v-1.743h1.793c.165-.008.331.012.49.058a.748.748 0 01.412.765zm6.936.796a3.337 3.337 0 00-1.149-.152h-.985a1.818 1.818 0 01-.756-.113.642.642 0 01-.32-.638c0-.375.122-.596.381-.668.267-.05.537-.071.808-.063h2.795v-1.33h-3.091a8.053 8.053 0 00-.825.031 1.554 1.554 0 00-1.217.69 2.554 2.554 0 00-.382 1.378c-.002.305.054.608.164.893.101.261.258.496.46.69.44.333.986.49 1.534.44h1.138c.234-.017.47.027.682.128a.77.77 0 01.358.707.695.695 0 01-.307.627 1.759 1.759 0 01-.876.145h-2.863v1.33h3.132c.356.008.712-.014 1.064-.066.242-.045.469-.148.663-.301a1.55 1.55 0 00.451-.578 2.54 2.54 0 00.26-1.161 2.963 2.963 0 00-.202-1.103 1.52 1.52 0 00-.917-.886zm8.716 0a3.302 3.302 0 00-1.146-.151h-.978a1.81 1.81 0 01-.757-.114.63.63 0 01-.34-.638c0-.375.126-.596.385-.668a3.71 3.71 0 01.808-.063h2.791v-1.33h-3.088a7.966 7.966 0 00-.825.031 1.557 1.557 0 00-1.217.69c-.256.412-.39.89-.385 1.378-.002.306.055.609.167.893.1.262.257.497.46.69.44.333.987.49 1.534.44h1.149a1.35 1.35 0 01.681.128.76.76 0 01.341.707.696.696 0 01-.303.627 1.769 1.769 0 01-.876.145h-2.85v1.33h3.133c.354.008.71-.014 1.06-.066a1.525 1.525 0 001.115-.879 2.54 2.54 0 00.262-1.161 3.026 3.026 0 00-.201-1.103 1.547 1.547 0 00-.92-.886zm6.309-2.829a3.944 3.944 0 00-1.217-.135h-3.126v7.08h1.394v-2.444h2.045c.29.01.58-.026.86-.107.226-.08.431-.213.6-.386.218-.227.384-.5.487-.8.116-.331.175-.681.173-1.034a2.751 2.751 0 00-.265-1.203 1.86 1.86 0 00-.951-.971zm-.28 2.133a1.152 1.152 0 01-.273.872.964.964 0 01-.644.166h-1.738v-1.962h1.766a1.23 1.23 0 01.477.07c.28.113.412.395.412.854zm6.661-1.957a3.566 3.566 0 00-1.644-.345c-.954 0-1.704.255-2.188.738-.59.572-.886 1.544-.886 2.881-.016.659.1 1.314.341 1.927.199.491.55.904 1.002 1.175.56.306 1.19.46 1.827.444.49.01.977-.085 1.428-.279a2.4 2.4 0 001.234-1.334c.226-.595.335-1.23.32-1.867a6.028 6.028 0 00-.262-1.869 2.424 2.424 0 00-.438-.857 2.39 2.39 0 00-.734-.614zm-.09 3.226a3.263 3.263 0 01-.377 1.761 1.317 1.317 0 01-1.163.558 1.32 1.32 0 01-1.182-.551 3.276 3.276 0 01-.382-1.782 3.482 3.482 0 01.3-1.662 1.35 1.35 0 011.261-.648 1.294 1.294 0 011.237.669c.232.521.337 1.091.307 1.661v-.006zm7.929 2.444a5.93 5.93 0 00-.079-.69 2.513 2.513 0 00-.163-.49 1.538 1.538 0 00-.341-.492 1.584 1.584 0 00-.46-.273 1.72 1.72 0 00.648-.472 2.4 2.4 0 00.456-1.564 2.198 2.198 0 00-.194-.931 1.72 1.72 0 00-.552-.69c-.341-.255-.965-.382-1.83-.382h-3.044v7.08h1.394v-2.658h1.022a1.92 1.92 0 011.023.207 1.1 1.1 0 01.416.493c.111.297.175.61.19.927.023.336.069.67.137 1v.03h1.557l-.017-.055a5.155 5.155 0 01-.163-1.04zm-1.473-3.813a.961.961 0 01-.276.78c-.19.11-.408.16-.627.14h-1.793v-1.743h1.793c.165-.009.33.011.488.058a.732.732 0 01.332.314.746.746 0 01.084.451zm1.919-.837h1.96v5.749h1.39v-5.75h2.036v-1.33h-5.386v1.33zm10.454 1.633a3.302 3.302 0 00-1.145-.151h-.985a1.808 1.808 0 01-.757-.114.631.631 0 01-.324-.638c0-.375.126-.596.385-.668a3.71 3.71 0 01.808-.063h2.792v-1.33h-3.088a7.968 7.968 0 00-.825.031 1.559 1.559 0 00-1.217.69c-.257.412-.39.89-.385 1.378 0 .306.056.609.167.893.1.262.257.497.46.69.44.333.986.49 1.534.44h1.138c.229-.015.458.029.665.128a.758.758 0 01.358.707.694.694 0 01-.304.627 1.757 1.757 0 01-.876.145h-2.85v1.33h3.133c.355.008.71-.014 1.06-.066a1.544 1.544 0 001.128-.858 2.54 2.54 0 00.263-1.161 3.032 3.032 0 00-.201-1.103 1.532 1.532 0 00-.934-.907zm6.047 2.613a.747.747 0 01-.382-.62c-.02-.162-.04-.497-.058-.99V35.88h-1.39v3.966a7.44 7.44 0 00.109 1.483 1.939 1.939 0 001.315 1.502 5.31 5.31 0 001.363.128h1.507v-1.33H78.6a2.808 2.808 0 01-1.166-.173zm6.875-5.576H82.74l-2.557 7.023-.02.056h1.64l.596-1.617h2.277l.593 1.617h1.626l-2.564-7.052-.023-.027zm.03 4.135h-1.632l.818-2.278.814 2.278zm7.816-.593c.252-.147.456-.366.586-.63a2.203 2.203 0 00.099-1.861 1.58 1.58 0 00-.682-.834 2.554 2.554 0 00-1.21-.218h-3.507v7.08h3.442c.396.016.791-.035 1.17-.152.275-.11.505-.31.654-.569.203-.355.303-.761.29-1.171a1.765 1.765 0 00-.842-1.645zm-3.323.663H90.6c.214-.019.43.03.616.137a.689.689 0 01.253.59.836.836 0 01-.273.658.516.516 0 01-.225.127 1.853 1.853 0 01-.399.032h-1.741v-1.544zm2.137-1.38c-.13.026-.263.036-.396.032h-1.741v-1.513H90.6a1.06 1.06 0 01.616.134.688.688 0 01.253.593.835.835 0 01-.273.658.545.545 0 01-.228.114v-.017z"/></g><g clip-path="url(#clip1_11_883)"><g clip-path="url(#clip2_11_883)"><mask id="b" style="mask-type:luminance" maskUnits="userSpaceOnUse" x="0" y="0" width="93" height="43"><path d="M93 0H0v43h93V0z" fill="#fff"/></mask><g mask="url(#b)" fill="#161616"><path d="M57.126 0C44.968 0 36.634 20.68 26.521 20.68a6.824 6.824 0 01-4.796-2.038 6.977 6.977 0 01-1.498-7.496 6.87 6.87 0 011.47-2.24 6.768 6.768 0 012.212-1.494 6.708 6.708 0 012.609-.519c2.328 0 4.608 1.148 6.65 2.706.78.596 1.213.944 2.359.954a3.358 3.358 0 002.36-.939 3.432 3.432 0 001.048-2.335c.03-.82-.27-2.023-1.104-2.664C34.248 1.878 30.676.038 26.518.038a13.47 13.47 0 00-5.271.984 13.59 13.59 0 00-4.487 2.966 13.764 13.764 0 00-3.004 4.49 13.89 13.89 0 000 10.628 13.765 13.765 0 003.004 4.489 13.586 13.586 0 004.486 2.966 13.468 13.468 0 005.272.984c13.348 0 23.1-20.628 30.608-20.628 5.454 0 12.138 4.34 14.22 6.87-4.594 4.66-10.754 6.893-14.22 6.893-2.195 0-4.138-1.662-5.399-2.64h-4.803v4.928s4.885 4.577 10.188 4.577c8.474 0 17.568-7.051 23.822-13.759C73.934 6.362 65.044 0 57.126 0zM1.435 36.19a2.208 2.208 0 00-.947.944A4.87 4.87 0 000 39.436c-.019.676.089 1.35.317 1.986.126.365.343.692.63.949.288.256.635.434 1.01.515.311.056.627.08.944.073h2.188v-1.33H3.163a1.62 1.62 0 01-1.118-.345c-.34-.297-.515-.959-.515-1.992 0-.759.113-1.286.341-1.572a1.493 1.493 0 011.241-.496h1.977V35.88H2.965a3.437 3.437 0 00-1.53.31zm5.887-.31H5.93v7.079h1.39v-7.08zm4.898 0l-2.335 3.425V35.88H8.49v7.079h1.394v-3.506l2.209 3.506h1.826l-2.474-3.581 2.6-3.498H12.22zm3.752.137c-.278.106-.53.273-.736.49-.661.689-.999 1.65-.999 2.874-.047.934.2 1.858.706 2.64.322.448.806.75 1.346.841.407.07.819.102 1.23.097h1.75v-1.33h-1.705a1.994 1.994 0 01-1.32-.345 1.735 1.735 0 01-.446-1.186h3.47v-1.33h-3.456c.013-.224.04-.446.082-.666a1.3 1.3 0 01.177-.403.969.969 0 01.487-.39 3.25 3.25 0 01.962-.103h1.748V35.88h-2.253a3.285 3.285 0 00-1.043.138zm9.807 5.843a5.866 5.866 0 00-.079-.69 2.5 2.5 0 00-.163-.49 1.538 1.538 0 00-.341-.492 1.585 1.585 0 00-.46-.273c.25-.104.473-.265.65-.472a2.43 2.43 0 00.454-1.564 2.193 2.193 0 00-.195-.931 1.72 1.72 0 00-.552-.69c-.34-.255-.964-.382-1.83-.382h-3.044v7.08h1.39v-2.658h1.04c.341-.02.681.051.985.207.186.123.33.301.413.51.11.297.175.61.19.927.024.336.07.67.137 1v.03h1.558v-.055a5.2 5.2 0 01-.153-1.058zm-1.473-3.813a.958.958 0 01-.276.78c-.19.11-.409.16-.627.14H21.61v-1.743h1.793c.165-.008.331.012.49.058a.748.748 0 01.412.765zm6.936.796a3.337 3.337 0 00-1.149-.152h-.985a1.818 1.818 0 01-.756-.113.642.642 0 01-.32-.638c0-.375.122-.596.381-.668.267-.05.537-.071.808-.063h2.795v-1.33h-3.091a8.053 8.053 0 00-.825.031 1.554 1.554 0 00-1.217.69 2.554 2.554 0 00-.382 1.378c-.002.305.054.608.164.893.101.261.258.496.46.69.44.333.986.49 1.534.44h1.138c.234-.017.47.027.682.128a.77.77 0 01.358.707.695.695 0 01-.307.627 1.759 1.759 0 01-.876.145h-2.863v1.33h3.132c.356.008.712-.014 1.064-.066.242-.045.469-.148.663-.301a1.55 1.55 0 00.451-.578 2.54 2.54 0 00.26-1.161 2.963 2.963 0 00-.202-1.103 1.52 1.52 0 00-.917-.886zm8.716 0a3.302 3.302 0 00-1.146-.151h-.978a1.81 1.81 0 01-.757-.114.63.63 0 01-.34-.638c0-.375.126-.596.385-.668a3.71 3.71 0 01.808-.063h2.791v-1.33h-3.088a7.966 7.966 0 00-.825.031 1.557 1.557 0 00-1.217.69c-.256.412-.39.89-.385 1.378-.002.306.055.609.167.893.1.262.257.497.46.69.44.333.987.49 1.534.44h1.149a1.35 1.35 0 01.681.128.76.76 0 01.341.707.696.696 0 01-.303.627 1.769 1.769 0 01-.876.145h-2.85v1.33h3.133c.354.008.71-.014 1.06-.066a1.525 1.525 0 001.115-.879 2.54 2.54 0 00.262-1.161 3.026 3.026 0 00-.201-1.103 1.547 1.547 0 00-.92-.886zm6.309-2.829a3.944 3.944 0 00-1.217-.135h-3.126v7.08h1.394v-2.444h2.045c.29.01.58-.026.86-.107.226-.08.431-.213.6-.386.218-.227.384-.5.487-.8.116-.331.175-.681.173-1.034a2.751 2.751 0 00-.265-1.203 1.86 1.86 0 00-.951-.971zm-.28 2.133a1.152 1.152 0 01-.273.872.964.964 0 01-.644.166h-1.738v-1.962h1.766a1.23 1.23 0 01.477.07c.28.113.412.395.412.854zm6.661-1.957a3.566 3.566 0 00-1.644-.345c-.954 0-1.704.255-2.188.738-.59.572-.886 1.544-.886 2.881-.016.659.1 1.314.341 1.927.199.491.55.904 1.002 1.175.56.306 1.19.46 1.827.444.49.01.977-.085 1.428-.279a2.4 2.4 0 001.234-1.334c.226-.595.335-1.23.32-1.867a6.028 6.028 0 00-.262-1.869 2.424 2.424 0 00-.438-.857 2.39 2.39 0 00-.734-.614zm-.09 3.226a3.263 3.263 0 01-.377 1.761 1.317 1.317 0 01-1.163.558 1.32 1.32 0 01-1.182-.551 3.276 3.276 0 01-.382-1.782 3.482 3.482 0 01.3-1.662 1.35 1.35 0 011.261-.648 1.294 1.294 0 011.237.669c.232.521.337 1.091.307 1.661v-.006zm7.929 2.444a5.93 5.93 0 00-.079-.69 2.513 2.513 0 00-.163-.49 1.538 1.538 0 00-.341-.492 1.584 1.584 0 00-.46-.273 1.72 1.72 0 00.648-.472 2.4 2.4 0 00.456-1.564 2.198 2.198 0 00-.194-.931 1.72 1.72 0 00-.552-.69c-.341-.255-.965-.382-1.83-.382h-3.044v7.08h1.394v-2.658h1.022a1.92 1.92 0 011.023.207 1.1 1.1 0 01.416.493c.111.297.175.61.19.927.023.336.069.67.137 1v.03h1.557l-.017-.055a5.155 5.155 0 01-.163-1.04zm-1.473-3.813a.961.961 0 01-.276.78c-.19.11-.408.16-.627.14h-1.793v-1.743h1.793c.165-.009.33.011.488.058a.732.732 0 01.332.314.746.746 0 01.084.451zm1.919-.837h1.96v5.749h1.39v-5.75h2.036v-1.33h-5.386v1.33zm10.454 1.633a3.302 3.302 0 00-1.145-.151h-.985a1.808 1.808 0 01-.757-.114.631.631 0 01-.324-.638c0-.375.126-.596.385-.668a3.71 3.71 0 01.808-.063h2.792v-1.33h-3.088a7.968 7.968 0 00-.825.031 1.559 1.559 0 00-1.217.69c-.257.412-.39.89-.385 1.378 0 .306.056.609.167.893.1.262.257.497.46.69.44.333.986.49 1.534.44h1.138c.229-.015.458.029.665.128a.758.758 0 01.358.707.694.694 0 01-.304.627 1.757 1.757 0 01-.876.145h-2.85v1.33h3.133c.355.008.71-.014 1.06-.066a1.544 1.544 0 001.128-.858 2.54 2.54 0 00.263-1.161 3.032 3.032 0 00-.201-1.103 1.532 1.532 0 00-.934-.907zm6.047 2.613a.747.747 0 01-.382-.62c-.02-.162-.04-.497-.058-.99V35.88h-1.39v3.966a7.44 7.44 0 00.109 1.483 1.939 1.939 0 001.315 1.502 5.31 5.31 0 001.363.128h1.507v-1.33H78.6a2.808 2.808 0 01-1.166-.173zm6.875-5.576H82.74l-2.557 7.023-.02.056h1.64l.596-1.617h2.277l.593 1.617h1.626l-2.564-7.052-.023-.027zm.03 4.135h-1.632l.818-2.278.814 2.278zm7.816-.593c.252-.147.456-.366.586-.63a2.203 2.203 0 00.099-1.861 1.58 1.58 0 00-.682-.834 2.554 2.554 0 00-1.21-.218h-3.507v7.08h3.442c.396.016.791-.035 1.17-.152.275-.11.505-.31.654-.569.203-.355.303-.761.29-1.171a1.765 1.765 0 00-.842-1.645zm-3.323.663H90.6c.214-.019.43.03.616.137a.689.689 0 01.253.59.836.836 0 01-.273.658.516.516 0 01-.225.127 1.853 1.853 0 01-.399.032h-1.741v-1.544zm2.137-1.38c-.13.026-.263.036-.396.032h-1.741v-1.513H90.6a1.06 1.06 0 01.616.134.688.688 0 01.253.593.835.835 0 01-.273.658.545.545 0 01-.228.114v-.017z"/></g></g></g></g><defs><clipPath id="clip0_11_883"><path fill="#fff" d="M0 0h93v43H0z"/></clipPath><clipPath id="clip1_11_883"><path fill="#fff" d="M0 0h93v43H0z"/></clipPath><clipPath id="clip2_11_883"><path fill="#fff" d="M0 0h93v43H0z"/></clipPath></defs></svg>