<svg width="1920" height="2493" fill="none" xmlns="http://www.w3.org/2000/svg"><path d="M0 497l1920 153.719V2302H0V497z" fill="#161616"/><path d="M2407.12 701.157L186.84 219.622l-8.453 38.966L2398.67 740.124l8.45-38.967z" fill="#167BF2"/><path d="M2423.7 633.27L192.052 149.267l-8.453 38.967L2415.25 672.236l8.45-38.966z" fill="#161616"/><path d="M2425.61 558.129L200.292 75.5l-11.416 41.497L2414.2 599.626l11.41-41.497z" fill="#167BF2"/><path d="M2569.57 164.182L164.015.302l-26.242 385.194L923 438l815-29.5 287.5 142 502.14 229.094 41.93-615.412z" fill="#fff"/><path d="M875.831 439C1232.75 516.129 1949.36 672.716 1959.76 678.183L-167.968 520.658l373.575-303.457L453 439h422.831zM484.492 2358.22l-281.266 107.07L-41.426 2280 2024 2294.5 928.304 2431.45l-443.812-73.23z" fill="#161616"/><path d="M413.787 2492.59l-77.163-40.83 73.944-46.41 3.219 87.24zm24.295-98.89l55.406-3.87-24.353 49.92-31.053-46.05z" fill="#161616"/><path d="M372.709 2360.55l-64.026 47.07-8.751-78.98 72.777 31.91z" fill="#fff"/></svg>