<svg width="20" height="20" fill="none" xmlns="http://www.w3.org/2000/svg"><path d="M14.263.526H5.737a5.21 5.21 0 00-5.21 5.21v8.527a5.21 5.21 0 005.21 5.21h8.526a5.21 5.21 0 005.21-5.21V5.737a5.21 5.21 0 00-5.21-5.21zm3.553 12.989a4.301 4.301 0 01-4.301 4.3h-7.03a4.301 4.301 0 01-4.3-4.3v-7.03a4.301 4.301 0 014.3-4.3h7.03a4.301 4.301 0 014.3 4.3v7.03z" fill="#fff"/><path d="M13.456 6.58l-.045-.045-.038-.038A4.775 4.775 0 0010 5.104 4.86 4.86 0 005.173 10a4.914 4.914 0 001.421 3.46 4.782 4.782 0 003.415 1.421 4.909 4.909 0 003.447-8.301zM10 13.212A3.212 3.212 0 1113.167 10 3.186 3.186 0 0110 13.212zm6.26-8.332a1.156 1.156 0 01-1.149 1.165 1.139 1.139 0 01-.81-.339 1.168 1.168 0 01.813-1.987c.267 0 .526.094.731.265l.024.024a.722.722 0 01.104.104l.026.029c.17.208.262.47.26.738z" fill="#fff"/></svg>