<svg width="24" height="14" fill="none" xmlns="http://www.w3.org/2000/svg"><path d="M22.375 13.044c-.524.074-3.085 0-3.218 0a2.516 2.516 0 01-1.777-.703c-.54-.52-1.023-1.092-1.55-1.636a4.284 4.284 0 00-.506-.457c-.421-.325-.839-.251-1.037.246a9.667 9.667 0 00-.323 1.642c-.035.504-.354.819-.919.853-.35.019-.7.025-1.045.017a7.978 7.978 0 01-3.618-.894 9.856 9.856 0 01-3.095-2.706C3.922 7.663 2.832 5.748 1.859 3.775 1.807 3.676.809 1.553.785 1.453c-.09-.336 0-.657.276-.767.176-.068 3.465 0 3.52 0a1.152 1.152 0 011.105.794 17.141 17.141 0 002.47 4.332 2.4 2.4 0 00.502.458c.268.182.521.119.632-.19.13-.429.208-.872.229-1.32.018-.887 0-1.472-.05-2.358-.032-.569-.232-1.068-1.071-1.227-.258-.045-.28-.258-.115-.47.346-.443.819-.512 1.348-.539.79-.045 1.58-.014 2.369 0h.172a4.89 4.89 0 011.022.105.941.941 0 01.751.838c.04.224.058.452.051.68-.02.969-.067 1.936-.077 2.906-.01.384.025.768.104 1.143.112.516.466.645.818.272.456-.48.873-.996 1.25-1.542a15.612 15.612 0 001.636-3.18c.23-.575.41-.702 1.023-.702h3.49a2.07 2.07 0 01.613.082.53.53 0 01.366.685c-.172.765-.585 1.417-1.022 2.045-.71 1.007-1.459 1.987-2.185 2.977a4.091 4.091 0 00-.252.409c-.274.493-.253.769.144 1.18.634.65 1.31 1.262 1.922 1.933.45.488.855 1.014 1.211 1.573.448.693.172 1.356-.662 1.474z" fill="#fff"/></svg>