<svg width="24" height="24" fill="none" xmlns="http://www.w3.org/2000/svg"><path d="M19.936 4.064A11.162 11.162 0 002.055 16.977L.87 22.727a.425.425 0 00.067.333.432.432 0 00.458.178l5.636-1.336A11.16 11.16 0 0019.936 4.064zM18.18 18.087a8.743 8.743 0 01-10.067 1.637l-.786-.389-3.455.818.01-.043.716-3.477-.384-.759a8.738 8.738 0 1113.966 2.213z" fill="#fff"/><path d="M17.872 15.537c-.423.666-1.092 1.483-1.932 1.685-1.473.356-3.733.012-6.546-2.61l-.035-.03C6.886 12.287 6.244 10.38 6.4 8.865c.086-.859.802-1.636 1.406-2.143a.804.804 0 011.258.288l.91 2.046a.8.8 0 01-.1.818l-.46.597a.792.792 0 00-.072.884c.258.452.875 1.117 1.56 1.732.77.696 1.623 1.332 2.163 1.549a.781.781 0 00.857-.18l.534-.538a.818.818 0 01.797-.205l2.162.614a.817.817 0 01.458 1.209z" fill="#fff"/></svg>